<svg xmlns="http://www.w3.org/2000/svg" width="371.001" height="197" viewBox="0 0 371.001 197">
  <g id="Group_326" data-name="Group 326" transform="translate(-408 -448.771)">
    <g id="Group_316" data-name="Group 316" transform="translate(16 -4)">
      <g id="Union_18" data-name="Union 18" transform="translate(-2709.666 1899.195)" fill="#fff">
        <path d="M 3452.66552734375 -1250.424072265625 L 3132.801025390625 -1250.424072265625 C 3130.235595703125 -1250.424072265625 3127.74755859375 -1250.92626953125 3125.40576171875 -1251.916748046875 C 3123.143310546875 -1252.873657226562 3121.111328125 -1254.243774414062 3119.3662109375 -1255.988891601562 C 3117.620849609375 -1257.734130859375 3116.250732421875 -1259.76611328125 3115.2939453125 -1262.028564453125 C 3114.303466796875 -1264.370361328125 3113.80126953125 -1266.858520507812 3113.80126953125 -1269.423950195312 L 3113.80126953125 -1384.917358398438 L 3113.80126953125 -1385.089233398438 L 3113.743896484375 -1385.251220703125 C 3112.9521484375 -1387.486572265625 3111.98291015625 -1389.73681640625 3110.863037109375 -1391.939697265625 C 3109.03125 -1395.541381835938 3107.458984375 -1400.632568359375 3106.18994140625 -1407.071899414062 C 3105.167236328125 -1412.262084960938 3104.341064453125 -1418.323364257812 3103.734619140625 -1425.08740234375 C 3103.670654296875 -1425.800170898438 3103.610595703125 -1426.505737304688 3103.55419921875 -1427.202758789062 C 3103.556640625 -1427.192993164062 3103.55908203125 -1427.1826171875 3103.5615234375 -1427.1728515625 C 3104.989990234375 -1421.263671875 3106.810302734375 -1416.183837890625 3108.971923828125 -1412.074584960938 C 3111.720703125 -1406.848999023438 3115.043212890625 -1403.167114257812 3118.84716796875 -1401.131225585938 L 3119.47119140625 -1400.797241210938 L 3119.99365234375 -1401.2744140625 C 3123.499755859375 -1404.477172851562 3128.048095703125 -1406.240966796875 3132.801025390625 -1406.240966796875 L 3452.66552734375 -1406.240966796875 C 3455.23095703125 -1406.240966796875 3457.718994140625 -1405.73876953125 3460.06103515625 -1404.748168945312 C 3462.323486328125 -1403.791137695312 3464.35546875 -1402.421020507812 3466.100830078125 -1400.675659179688 C 3467.84619140625 -1398.930297851562 3469.216552734375 -1396.898071289062 3470.173583984375 -1394.635620117188 C 3471.1640625 -1392.293823242188 3471.666259765625 -1389.8056640625 3471.666259765625 -1387.240234375 L 3471.666259765625 -1269.423950195312 C 3471.666259765625 -1266.858520507812 3471.1640625 -1264.370361328125 3470.173583984375 -1262.028564453125 C 3469.216552734375 -1259.766235351562 3467.84619140625 -1257.734252929688 3466.100830078125 -1255.989013671875 C 3464.35546875 -1254.243774414062 3462.323486328125 -1252.873657226562 3460.06103515625 -1251.916748046875 C 3457.718994140625 -1250.92626953125 3455.23095703125 -1250.424072265625 3452.66552734375 -1250.424072265625 Z" stroke="none"/>
        <path d="M 3452.66552734375 -1251.424072265625 C 3457.4736328125 -1251.424072265625 3461.993896484375 -1253.29638671875 3465.393798828125 -1256.696166992188 C 3468.793701171875 -1260.095825195312 3470.666259765625 -1264.615966796875 3470.666259765625 -1269.423950195312 L 3470.666259765625 -1387.240234375 C 3470.666259765625 -1392.048217773438 3468.793701171875 -1396.568481445312 3465.393798828125 -1399.968505859375 C 3461.993896484375 -1403.368530273438 3457.473388671875 -1405.240966796875 3452.66552734375 -1405.240966796875 L 3132.801025390625 -1405.240966796875 C 3128.29833984375 -1405.240966796875 3123.989501953125 -1403.570068359375 3120.66796875 -1400.5361328125 L 3119.623046875 -1399.581665039062 L 3118.375244140625 -1400.24951171875 C 3114.39208984375 -1402.381469726562 3110.930419921875 -1406.203369140625 3108.0869140625 -1411.609008789062 C 3107.198974609375 -1413.297119140625 3106.367919921875 -1415.144165039062 3105.59765625 -1417.140502929688 C 3107.01611328125 -1406.05078125 3109.115478515625 -1397.581665039062 3111.75439453125 -1392.392822265625 C 3112.89404296875 -1390.151611328125 3113.88037109375 -1387.861083984375 3114.6865234375 -1385.585083007812 L 3114.80126953125 -1385.261108398438 L 3114.80126953125 -1384.917358398438 L 3114.80126953125 -1269.423950195312 C 3114.80126953125 -1264.615966796875 3116.673583984375 -1260.095703125 3120.0732421875 -1256.696044921875 C 3123.472900390625 -1253.29638671875 3127.9931640625 -1251.424072265625 3132.801025390625 -1251.424072265625 L 3452.66552734375 -1251.424072265625 M 3452.66552734375 -1249.424072265625 L 3132.801025390625 -1249.424072265625 C 3121.75537109375 -1249.424072265625 3112.80126953125 -1258.378173828125 3112.80126953125 -1269.423950195312 L 3112.80126953125 -1384.917358398438 C 3112.0615234375 -1387.006225585938 3111.132568359375 -1389.203125 3109.9716796875 -1391.486450195312 C 3101.754638671875 -1407.643188476562 3101.66552734375 -1446.424194335938 3101.66552734375 -1446.424194335938 C 3101.66552734375 -1446.424194335938 3103.4287109375 -1410.517822265625 3119.319091796875 -1402.012817382812 C 3122.8740234375 -1405.260009765625 3127.606201171875 -1407.240966796875 3132.801025390625 -1407.240966796875 L 3452.66552734375 -1407.240966796875 C 3463.711181640625 -1407.240966796875 3472.666259765625 -1398.285888671875 3472.666259765625 -1387.240234375 L 3472.666259765625 -1269.423950195312 C 3472.666259765625 -1258.378173828125 3463.711181640625 -1249.424072265625 3452.66552734375 -1249.424072265625 Z" stroke="none" fill="#707070"/>
      </g>
      <text id="問卷小子有限公司為全球研究人員提供專業知識_以提高調查的可靠性_我們致力於為您的正確問卷找到合適的人_" data-name="問卷小子有限公司為全球研究人員提供專業知識，以提高調查的可靠性，我們致力於為您的正確問卷找到合適的人。" transform="translate(422 533)" fill="#333" font-size="16" font-family="PingFangTC-Semibold, PingFang TC" font-weight="600" letter-spacing="0.089em"><tspan x="8.595" y="17">問卷小子有限公司為全球研究人員提供</tspan><tspan x="8.595" y="43">專業知識，以提高調查的可靠性，我們</tspan><tspan x="8.595" y="69">致力於為您的正確問卷找到合適的人。</tspan></text>
    </g>
  </g>
</svg>
