<svg xmlns="http://www.w3.org/2000/svg" width="415" height="172.001" viewBox="0 0 415 172.001">
  <g id="Group_325" data-name="Group 325" transform="translate(-845 -441.771)">
    <g id="Group_317" data-name="Group 317" transform="translate(-12 -71)">
      <g id="Union_19" data-name="Union 19" transform="translate(1272 684.771) rotate(180)" fill="#fff">
        <path d="M 1.88279390335083 156.3350830078125 C 1.976386070251465 155.3766326904297 2.079803466796875 154.3967742919922 2.194269895553589 153.4003448486328 C 2.871006965637207 147.5093536376953 3.792585849761963 142.2317199707031 4.933427810668945 137.7140350341797 C 6.345691204071045 132.1216125488281 8.093533515930176 127.702507019043 10.12853336334229 124.5794525146484 C 11.39169120788574 122.6415023803711 12.48337554931641 120.662239074707 13.37332248687744 118.6967697143555 L 13.46711254119873 118.4896087646484 L 13.46205902099609 118.2622375488281 C 13.45790195465088 118.0718231201172 13.45600700378418 117.9256591796875 13.45600700378418 117.7883987426758 L 13.45600700378418 19.99892425537109 C 13.45600700378418 17.43350410461426 13.95821762084961 14.94534587860107 14.94869136810303 12.60355663299561 C 15.90558624267578 10.34118843078613 17.27563858032227 8.309187889099121 19.02090072631836 6.563977718353271 C 20.76611137390137 4.818714618682861 22.7981128692627 3.448662042617798 25.06048011779785 2.491767168045044 C 27.40221786499023 1.501293540000916 29.8903751373291 0.9990830421447754 32.45579528808594 0.9990830421447754 L 395.0001220703125 0.9990830421447754 C 397.5655212402344 0.9990830421447754 400.0536804199219 1.501293540000916 402.3954162597656 2.491767168045044 C 404.6578063964844 3.448662042617798 406.6897888183594 4.818714618682861 408.4349975585938 6.563977718353271 C 410.1802673339844 8.309187889099121 411.5503234863281 10.34118843078613 412.5072021484375 12.60355663299561 C 413.4976806640625 14.94534587860107 413.9999084472656 17.43350410461426 413.9999084472656 19.99892425537109 L 413.9999084472656 117.7883987426758 C 413.9999084472656 120.3538208007812 413.4976806640625 122.8419799804688 412.5072021484375 125.1837158203125 C 411.5503234863281 127.4460830688477 410.1802673339844 129.4780883789062 408.4349975585938 131.2232971191406 C 406.6897888183594 132.9685516357422 404.6578063964844 134.3386077880859 402.3954162597656 135.2955017089844 C 400.0536804199219 136.2859802246094 397.5655212402344 136.7881927490234 395.0001220703125 136.7881927490234 L 32.45579528808594 136.7881927490234 C 30.21158599853516 136.7881927490234 28.01500701904297 136.40087890625 25.9271125793457 135.6369781494141 C 23.90932273864746 134.8988189697266 22.04195404052734 133.8283386230469 20.37674331665039 132.4554443359375 L 19.91127014160156 132.0717163085938 L 19.35474395751953 132.3044586181641 C 15.11848068237305 134.0761413574219 11.40942764282227 137.2916564941406 8.330585479736328 141.8616027832031 C 5.90174388885498 145.4668731689453 3.856533288955688 149.9223937988281 2.251796245574951 155.1044006347656 C 2.124053239822388 155.5169067382812 2.000966310501099 155.9278564453125 1.88279390335083 156.3350830078125 Z" stroke="none"/>
        <path d="M 3.964730501174927 147.7129364013672 C 5.031646251678467 145.3574066162109 6.213274002075195 143.2146606445312 7.501269817352295 141.3028717041016 C 10.69111251831055 136.5681304931641 14.54937553405762 133.2302398681641 18.96890068054199 131.3818664550781 L 20.08195495605469 130.9163970947266 L 21.01284980773926 131.6838684082031 C 22.59053230285645 132.9846038818359 24.3594799041748 133.9986572265625 26.27069091796875 134.6978759765625 C 28.24816513061523 135.4213409423828 30.32916450500488 135.7881927490234 32.45579528808594 135.7881927490234 L 395.0001220703125 135.7881927490234 C 399.8080444335938 135.7881927490234 404.3282165527344 133.9158782958984 407.7279052734375 130.5161895751953 C 411.1275939941406 127.1165008544922 412.9999084472656 122.5963439941406 412.9999084472656 117.7883987426758 L 412.9999084472656 19.99892425537109 C 412.9999084472656 15.19092559814453 411.1275939941406 10.67076683044434 407.7279052734375 7.271082878112793 C 404.3282165527344 3.87139892578125 399.8080444335938 1.999083042144775 395.0001220703125 1.999083042144775 L 32.45579528808594 1.999083042144775 C 27.64784812927246 1.999083042144775 23.1276912689209 3.87139892578125 19.72800636291504 7.271082878112793 C 16.32832336425781 10.67076683044434 14.45600700378418 15.19092559814453 14.45600700378418 19.99892425537109 L 14.45600700378418 117.7883987426758 C 14.45600700378418 117.9180297851562 14.45779609680176 118.0573425292969 14.46184921264648 118.2401885986328 L 14.471848487854 118.6948699951172 L 14.28427028656006 119.1091918945312 C 13.37348079681396 121.1209259033203 12.25711250305176 123.145133972168 10.96637535095215 125.1253433227539 C 7.931146621704102 129.7835540771484 5.53851318359375 137.5270690917969 3.964730501174927 147.7129364013672 M 6.855211722722743e-06 171.9999237060547 C 6.855211722722743e-06 171.9999237060547 0.09900685399770737 138.1400756835938 9.290691375732422 124.0335006713867 C 10.59300708770752 122.0355072021484 11.63432312011719 120.1130828857422 12.46232223510742 118.284294128418 C 12.45869064331055 118.1196060180664 12.45600700378418 117.9549255371094 12.45600700378418 117.7883987426758 L 12.45600700378418 19.99892425537109 C 12.45600700378418 8.953187942504883 21.41011238098145 -0.0009169632685370743 32.45579528808594 -0.0009169632685370743 L 395.0001220703125 -0.0009169632685370743 C 406.0458068847656 -0.0009169632685370743 414.9999084472656 8.953187942504883 414.9999084472656 19.99892425537109 L 414.9999084472656 117.7883987426758 C 414.9999084472656 128.8340759277344 406.0458068847656 137.7881927490234 395.0001220703125 137.7881927490234 L 32.45579528808594 137.7881927490234 C 27.62732315063477 137.7881927490234 23.19658660888672 136.0764007568359 19.74058532714844 133.2270355224609 C 1.971901535987854 140.6582946777344 6.855211722722743e-06 171.9999237060547 6.855211722722743e-06 171.9999237060547 Z" stroke="none" fill="#707070"/>
      </g>
      <text id="我們想要為你們_也就是需要發放問卷但又擔心有效性的人們_提供服務_" data-name="我們想要為你們——
也就是需要發放問卷但又擔心有效性的人們，
提供服務！" transform="translate(887 580)" fill="#333" font-size="16" font-family="PingFangTC-Semibold, PingFang TC" font-weight="600" letter-spacing="0.089em"><tspan x="0" y="17">我們想要為你們</tspan><tspan y="17" font-family="Roboto-Black, Roboto" font-weight="800">——</tspan><tspan x="0" y="43">也就是需要發放問卷但又擔心有效性的人們，</tspan><tspan y="43" font-family="Roboto-Black, Roboto" font-weight="800"></tspan><tspan x="0" y="69">提供服務！</tspan></text>
    </g>
  </g>
</svg>
