<svg xmlns="http://www.w3.org/2000/svg" width="16" height="16" viewBox="0 0 16 16">
  <g id="settings" transform="translate(0.5 0.5)">
    <path id="Path_273" data-name="Path 273" d="M7.971,15H7.029a1.382,1.382,0,0,1-1.381-1.381V13.3a6.056,6.056,0,0,1-.94-.39l-.226.226a1.381,1.381,0,0,1-1.953,0l-.665-.665a1.381,1.381,0,0,1,0-1.953l.226-.226a6.056,6.056,0,0,1-.39-.94H1.381A1.382,1.382,0,0,1,0,7.971V7.029A1.382,1.382,0,0,1,1.381,5.648H1.7a6.057,6.057,0,0,1,.39-.94l-.226-.226a1.381,1.381,0,0,1,0-1.953l.665-.665a1.381,1.381,0,0,1,1.953,0l.225.225a6.061,6.061,0,0,1,.94-.39V1.381A1.382,1.382,0,0,1,7.029,0h.941A1.382,1.382,0,0,1,9.352,1.381V1.7a6.056,6.056,0,0,1,.94.39l.226-.226a1.381,1.381,0,0,1,1.953,0l.665.665a1.381,1.381,0,0,1,0,1.953l-.226.226a6.056,6.056,0,0,1,.39.94h.318A1.382,1.382,0,0,1,15,7.029v.941a1.382,1.382,0,0,1-1.381,1.381H13.3a6.057,6.057,0,0,1-.39.94l.226.226a1.381,1.381,0,0,1,0,1.953l-.665.665a1.381,1.381,0,0,1-1.953,0l-.225-.225a6.061,6.061,0,0,1-.94.39v.318A1.382,1.382,0,0,1,7.971,15ZM4.855,11.987a5.18,5.18,0,0,0,1.343.557.439.439,0,0,1,.33.426v.649a.5.5,0,0,0,.5.5h.941a.5.5,0,0,0,.5-.5V12.97a.439.439,0,0,1,.33-.426,5.18,5.18,0,0,0,1.343-.557.439.439,0,0,1,.534.068l.46.46a.5.5,0,0,0,.71,0l.666-.666a.5.5,0,0,0,0-.71l-.46-.46a.439.439,0,0,1-.068-.534A5.179,5.179,0,0,0,12.545,8.8a.439.439,0,0,1,.426-.33h.649a.5.5,0,0,0,.5-.5V7.029a.5.5,0,0,0-.5-.5H12.97a.439.439,0,0,1-.426-.33,5.18,5.18,0,0,0-.557-1.343.439.439,0,0,1,.068-.534l.46-.46a.5.5,0,0,0,0-.71l-.666-.666a.5.5,0,0,0-.71,0l-.46.46a.439.439,0,0,1-.534.068A5.18,5.18,0,0,0,8.8,2.455a.439.439,0,0,1-.33-.426V1.381a.5.5,0,0,0-.5-.5H7.029a.5.5,0,0,0-.5.5V2.03a.439.439,0,0,1-.33.426,5.18,5.18,0,0,0-1.343.557.44.44,0,0,1-.534-.068l-.46-.46a.5.5,0,0,0-.71,0l-.666.666a.5.5,0,0,0,0,.71l.46.46a.439.439,0,0,1,.068.534A5.179,5.179,0,0,0,2.455,6.2a.439.439,0,0,1-.426.33H1.381a.5.5,0,0,0-.5.5v.941a.5.5,0,0,0,.5.5H2.03a.439.439,0,0,1,.426.33,5.18,5.18,0,0,0,.557,1.343.439.439,0,0,1-.068.534l-.46.46a.5.5,0,0,0,0,.71l.666.666a.5.5,0,0,0,.71,0l.46-.46a.442.442,0,0,1,.534-.067Z" transform="translate(0 0)" fill="none" stroke="#333" stroke-width="1"/>
    <path id="Path_274" data-name="Path 274" d="M147.864,151.127a3.264,3.264,0,1,1,3.264-3.264A3.267,3.267,0,0,1,147.864,151.127Zm0-5.648a2.385,2.385,0,1,0,2.385,2.385A2.387,2.387,0,0,0,147.864,145.479Z" transform="translate(-140.364 -140.364)" fill="none" stroke="#333" stroke-width="1"/>
  </g>
</svg>
