<svg id="Icon-profile" xmlns="http://www.w3.org/2000/svg" width="60" height="60" viewBox="0 0 60 60">
  <g id="Ellipse_19" data-name="Ellipse 19" transform="translate(0 0)" fill="#fff" stroke="#333" stroke-width="3">
    <circle cx="30" cy="30" r="30" stroke="none"/>
    <circle cx="30" cy="30" r="28.5" fill="none"/>
  </g>
  <g id="Group_280" data-name="Group 280" transform="translate(0.001)">
    <path id="Subtraction_1" data-name="Subtraction 1" d="M12,54l0,0A30.3,30.3,0,0,1,3.267,43.629,29.991,29.991,0,0,1,30,0,30.013,30.013,0,0,1,56.732,43.63,30.265,30.265,0,0,1,48,54l0-3.471c-2.107-1.576-4.126-2.95-6-4.084A25.319,25.319,0,0,0,32.323,43.2H27.675A25.321,25.321,0,0,0,18,46.446c-1.873,1.132-3.892,2.506-6,4.084V54Z" fill="#333"/>
    <circle id="Ellipse_18" data-name="Ellipse 18" cx="12" cy="12" r="12" transform="translate(18.399 14.4)" fill="#fff"/>
  </g>
</svg>
